<svg viewBox="0 0 24 24" fill="none" xmlns="http://www.w3.org/2000/svg">
<path d="M17.9997 8H9.99966C8.89509 8 7.99966 8.89543 7.99966 10V18C7.99966 19.1046 8.89509 20 9.99966 20H17.9997C19.1042 20 19.9997 19.1046 19.9997 18V10C19.9997 8.89543 19.1042 8 17.9997 8Z" stroke="currentColor" stroke-width="1" stroke-linecap="round" stroke-linejoin="round"/>
<path d="M16.0002 8V6C16.0002 5.46957 15.7895 4.96086 15.4144 4.58579C15.0394 4.21071 14.5306 4 14.0002 4H6.00021C5.46978 4 4.96107 4.21071 4.586 4.58579C4.21093 4.96086 4.00021 5.46957 4.00021 6V14C4.00021 14.5304 4.21093 15.0391 4.586 15.4142C4.96107 15.7893 5.46978 16 6.00021 16H8.00021" stroke="currentColor" stroke-width="1" stroke-linecap="round" stroke-linejoin="round"/>
</svg>
