<svg  viewBox="0 0 24 24" fill="none" xmlns="http://www.w3.org/2000/svg">
<path d="M6.99719 7.00098H5.99719C5.46676 7.00098 4.95805 7.21169 4.58298 7.58676C4.20791 7.96184 3.99719 8.47054 3.99719 9.00098V18.001C3.99719 18.5314 4.20791 19.0401 4.58298 19.4152C4.95805 19.7903 5.46676 20.001 5.99719 20.001H14.9972C15.5276 20.001 16.0363 19.7903 16.4114 19.4152C16.7865 19.0401 16.9972 18.5314 16.9972 18.001V17.001" stroke="currentColor" stroke-linecap="round" stroke-linejoin="round"/>
<path d="M20.385 6.58511C20.7788 6.19126 21.0001 5.65709 21.0001 5.10011C21.0001 4.54312 20.7788 4.00895 20.385 3.61511C19.9912 3.22126 19.457 3 18.9 3C18.343 3 17.8088 3.22126 17.415 3.61511L9 12.0001V15.0001H12L20.385 6.58511Z" stroke="currentColor" stroke-linecap="round" stroke-linejoin="round"/>
<path d="M15.9972 4.99902L18.9972 7.99902" stroke="currentColor" stroke-linecap="round" stroke-linejoin="round"/>
</svg>
