<svg width="14" height="18" viewBox="0 0 14 18" fill="none" xmlns="http://www.w3.org/2000/svg">
<path d="M3.66732 1.50033C3.66732 1.04009 4.04041 0.666992 4.50065 0.666992H9.50065C9.96089 0.666992 10.334 1.04009 10.334 1.50033H12.0007C12.9211 1.50033 13.6673 2.24652 13.6673 3.16699V15.667C13.6673 16.5875 12.9211 17.3337 12.0007 17.3337H2.00065C1.08018 17.3337 0.333984 16.5875 0.333984 15.667V3.16699C0.333984 2.24652 1.08018 1.50033 2.00065 1.50033H3.66732ZM3.66732 3.16699H2.00065V15.667H12.0007V3.16699H10.334V4.00033C10.334 4.46056 9.96089 4.83366 9.50065 4.83366H4.50065C4.04041 4.83366 3.66732 4.46056 3.66732 4.00033V3.16699ZM8.66732 2.33366H5.33398V3.16699H8.66732V2.33366ZM10.0899 7.9944C10.4153 8.31984 10.4153 8.84748 10.0899 9.17291L6.75657 12.5062C6.43114 12.8317 5.9035 12.8317 5.57806 12.5062L3.9114 10.8396C3.58596 10.5141 3.58596 9.98651 3.9114 9.66107C4.23683 9.33563 4.76447 9.33563 5.08991 9.66107L6.16732 10.7385L8.9114 7.9944C9.23683 7.66897 9.76447 7.66897 10.0899 7.9944Z" fill="currentColor"/>
</svg>
