<svg width="24" height="24" viewBox="0 0 24 24" fill="none" xmlns="http://www.w3.org/2000/svg">
<path d="M4.99957 5V21" stroke="currentColor" stroke-width="2" stroke-linecap="round" stroke-linejoin="round"/>
<path d="M19 5V14" stroke="currentColor" stroke-width="2" stroke-linecap="round" stroke-linejoin="round"/>
<path d="M4.99957 4.9996C5.93421 4.08346 7.1908 3.57031 8.49956 3.57031C9.80833 3.57031 11.0649 4.08346 11.9996 4.9996C12.9342 5.91573 14.1908 6.42888 15.4996 6.42888C16.8083 6.42888 18.0649 5.91573 18.9996 4.9996" stroke="currentColor" stroke-width="2" stroke-linecap="round" stroke-linejoin="round"/>
<path d="M4.99957 13.9996C5.93421 13.0835 7.1908 12.5703 8.49956 12.5703C9.80833 12.5703 11.0649 13.0835 11.9996 13.9996C12.9342 14.9157 14.1908 15.4289 15.4996 15.4289C16.8083 15.4289 18.0649 14.9157 18.9996 13.9996" stroke="currentColor" stroke-width="2" stroke-linecap="round" stroke-linejoin="round"/>
</svg>
