<svg width="24" height="24" viewBox="0 0 24 24" fill="none" xmlns="http://www.w3.org/2000/svg">
<path d="M9.25036 11.0833C11.2754 11.0833 12.917 9.44171 12.917 7.41667C12.917 5.39162 11.2754 3.75 9.25036 3.75C7.22532 3.75 5.58369 5.39162 5.58369 7.41667C5.58369 9.44171 7.22532 11.0833 9.25036 11.0833Z" stroke="currentColor" stroke-width="1.5" stroke-linecap="round" stroke-linejoin="round"/>
<path d="M3.75021 20.25V18.4167C3.75021 17.4442 4.13652 16.5116 4.82416 15.8239C5.51179 15.1363 6.44442 14.75 7.41688 14.75H11.0835C12.056 14.75 12.9886 15.1363 13.6763 15.8239C14.3639 16.5116 14.7502 17.4442 14.7502 18.4167V20.25" stroke="currentColor" stroke-width="1.5" stroke-linecap="round" stroke-linejoin="round"/>
<path d="M15.667 3.87012C16.4557 4.07206 17.1547 4.53076 17.654 5.1739C18.1532 5.81704 18.4242 6.60804 18.4242 7.4222C18.4242 8.23636 18.1532 9.02736 17.654 9.6705C17.1547 10.3136 16.4557 10.7723 15.667 10.9743" stroke="currentColor" stroke-width="1.5" stroke-linecap="round" stroke-linejoin="round"/>
<path d="M20.2496 20.2502V18.4169C20.2449 17.6076 19.9727 16.8226 19.4752 16.1842C18.9778 15.5459 18.2832 15.09 17.4996 14.8877" stroke="currentColor" stroke-width="1.5" stroke-linecap="round" stroke-linejoin="round"/>
</svg>
