<svg viewBox="0 0 20 21" fill="none" xmlns="http://www.w3.org/2000/svg">
<path d="M9 15.8896H11V9.88965H9V15.8896ZM10 7.88965C10.2833 7.88965 10.521 7.79365 10.713 7.60165C10.905 7.40965 11.0007 7.17232 11 6.88965C10.9993 6.60698 10.9033 6.36965 10.712 6.17765C10.5207 5.98565 10.2833 5.88965 10 5.88965C9.71667 5.88965 9.47933 5.98565 9.288 6.17765C9.09667 6.36965 9.00067 6.60698 9 6.88965C8.99933 7.17232 9.09533 7.40998 9.288 7.60265C9.48067 7.79532 9.718 7.89098 10 7.88965ZM10 20.8896C8.61667 20.8896 7.31667 20.627 6.1 20.1016C4.88334 19.5763 3.825 18.864 2.925 17.9646C2.025 17.0653 1.31267 16.007 0.788001 14.7896C0.263335 13.5723 0.000667933 12.2723 1.26582e-06 10.8896C-0.000665401 9.50698 0.262001 8.20698 0.788001 6.98965C1.314 5.77232 2.02633 4.71398 2.925 3.81465C3.82367 2.91532 4.882 2.20298 6.1 1.67765C7.318 1.15232 8.618 0.889648 10 0.889648C11.382 0.889648 12.682 1.15232 13.9 1.67765C15.118 2.20298 16.1763 2.91532 17.075 3.81465C17.9737 4.71398 18.6863 5.77232 19.213 6.98965C19.7397 8.20698 20.002 9.50698 20 10.8896C19.998 12.2723 19.7353 13.5723 19.212 14.7896C18.6887 16.007 17.9763 17.0653 17.075 17.9646C16.1737 18.864 15.1153 19.5766 13.9 20.1026C12.6847 20.6286 11.3847 20.891 10 20.8896ZM10 18.8896C12.2333 18.8896 14.125 18.1146 15.675 16.5646C17.225 15.0146 18 13.123 18 10.8896C18 8.65631 17.225 6.76465 15.675 5.21465C14.125 3.66465 12.2333 2.88965 10 2.88965C7.76667 2.88965 5.875 3.66465 4.325 5.21465C2.775 6.76465 2 8.65631 2 10.8896C2 13.123 2.775 15.0146 4.325 16.5646C5.875 18.1146 7.76667 18.8896 10 18.8896Z" fill="currentColor"/>
</svg>
