<svg width="24" height="24" viewBox="0 0 24 24" fill="none" xmlns="http://www.w3.org/2000/svg">
<path d="M14.0003 8V6C14.0003 5.46957 13.7896 4.96086 13.4145 4.58579C13.0394 4.21071 12.5307 4 12.0003 4H5.00031C4.46987 4 3.96116 4.21071 3.58609 4.58579C3.21102 4.96086 3.00031 5.46957 3.00031 6V18C3.00031 18.5304 3.21102 19.0391 3.58609 19.4142C3.96116 19.7893 4.46987 20 5.00031 20H12.0003C12.5307 20 13.0394 19.7893 13.4145 19.4142C13.7896 19.0391 14.0003 18.5304 14.0003 18V16" stroke="currentColor" stroke-width="2" stroke-linecap="round" stroke-linejoin="round"/>
<path d="M20.0002 12H7.00024M7.00024 12L10.0002 9M7.00024 12L10.0002 15" stroke="currentColor" stroke-width="2" stroke-linecap="round" stroke-linejoin="round"/>
</svg>
