<svg viewBox="0 0 24 24" fill="none" xmlns="http://www.w3.org/2000/svg">
<path d="M12.0001 14C13.6569 14 15.0001 12.6569 15.0001 11C15.0001 9.34315 13.6569 8 12.0001 8C10.3432 8 9.00009 9.34315 9.00009 11C9.00009 12.6569 10.3432 14 12.0001 14Z" stroke="currentColor" stroke-width="1.5" stroke-linecap="round" stroke-linejoin="round"/>
<path d="M17.6572 16.6567L13.4142 20.8997C13.0392 21.2743 12.5308 21.4848 12.0007 21.4848C11.4706 21.4848 10.9622 21.2743 10.5872 20.8997L6.34318 16.6567C5.2244 15.5379 4.46251 14.1124 4.15386 12.5606C3.84521 11.0087 4.00367 9.40022 4.60918 7.93844C5.21469 6.47665 6.24007 5.22725 7.55566 4.34821C8.87124 3.46918 10.4179 3 12.0002 3C13.5824 3 15.1291 3.46918 16.4447 4.34821C17.7603 5.22725 18.7857 6.47665 19.3912 7.93844C19.9967 9.40022 20.1551 11.0087 19.8465 12.5606C19.5378 14.1124 18.776 15.5379 17.6572 16.6567Z" stroke="currentColor" stroke-width="1.5" stroke-linecap="round" stroke-linejoin="round"/>
</svg>
