<svg  viewBox="0 0 24 25" fill="none" xmlns="http://www.w3.org/2000/svg">
<path d="M12 14.5C13.1046 14.5 14 13.6046 14 12.5C14 11.3954 13.1046 10.5 12 10.5C10.8954 10.5 10 11.3954 10 12.5C10 13.6046 10.8954 14.5 12 14.5Z" fill="currentColor"/>
<path d="M6 14.5C7.10457 14.5 8 13.6046 8 12.5C8 11.3954 7.10457 10.5 6 10.5C4.89543 10.5 4 11.3954 4 12.5C4 13.6046 4.89543 14.5 6 14.5Z" fill="currentColor"/>
<path d="M18 14.5C19.1046 14.5 20 13.6046 20 12.5C20 11.3954 19.1046 10.5 18 10.5C16.8954 10.5 16 11.3954 16 12.5C16 13.6046 16.8954 14.5 18 14.5Z" fill="currentColor"/>
</svg>
