<svg width="12" height="12" viewBox="0 0 12 12" fill="none" xmlns="http://www.w3.org/2000/svg">
<path d="M6.00065 11.3335C5.63246 11.3335 5.33398 11.035 5.33398 10.6668L5.33398 6.66683H1.33399C0.965795 6.66683 0.667318 6.36835 0.667318 6.00016C0.667318 5.63197 0.965795 5.33349 1.33399 5.33349H5.33398V1.3335C5.33398 0.965305 5.63246 0.666829 6.00065 0.666829C6.36884 0.666829 6.66732 0.965305 6.66732 1.3335V5.33349L10.6673 5.33349C11.0355 5.33349 11.334 5.63197 11.334 6.00016C11.334 6.36835 11.0355 6.66683 10.6673 6.66683L6.66732 6.66683L6.66732 10.6668C6.66732 11.035 6.36884 11.3335 6.00065 11.3335Z" fill="currentColor"/>
</svg>
