<svg width="24" height="24" viewBox="0 0 24 24" fill="none" xmlns="http://www.w3.org/2000/svg">
<path d="M10.3256 4.31798C10.7516 2.56198 13.2496 2.56198 13.6756 4.31798C13.7395 4.58178 13.8648 4.82676 14.0413 5.03298C14.2178 5.2392 14.4405 5.40083 14.6913 5.50472C14.942 5.60861 15.2138 5.65183 15.4844 5.63085C15.755 5.60986 16.0169 5.52528 16.2486 5.38398C17.7916 4.44398 19.5586 6.20998 18.6186 7.75398C18.4775 7.98563 18.3931 8.24731 18.3721 8.51775C18.3512 8.78819 18.3944 9.05975 18.4981 9.31036C18.6019 9.56097 18.7633 9.78355 18.9693 9.96003C19.1753 10.1365 19.42 10.2619 19.6836 10.326C21.4396 10.752 21.4396 13.25 19.6836 13.676C19.4198 13.7399 19.1748 13.8652 18.9686 14.0417C18.7624 14.2182 18.6008 14.4409 18.4969 14.6916C18.393 14.9424 18.3498 15.2141 18.3707 15.4848C18.3917 15.7554 18.4763 16.0172 18.6176 16.249C19.5576 17.792 17.7916 19.559 16.2476 18.619C16.016 18.4779 15.7543 18.3934 15.4838 18.3725C15.2134 18.3516 14.9418 18.3947 14.6912 18.4985C14.4406 18.6023 14.218 18.7637 14.0416 18.9697C13.8651 19.1757 13.7397 19.4204 13.6756 19.684C13.2496 21.44 10.7516 21.44 10.3256 19.684C10.2617 19.4202 10.1364 19.1752 9.9599 18.969C9.78341 18.7628 9.56072 18.6011 9.30996 18.4972C9.0592 18.3933 8.78744 18.3501 8.51682 18.3711C8.2462 18.3921 7.98436 18.4767 7.75261 18.618C6.20961 19.558 4.44261 17.792 5.38261 16.248C5.52371 16.0163 5.60816 15.7546 5.62909 15.4842C5.65003 15.2138 5.60685 14.9422 5.50308 14.6916C5.39931 14.441 5.23787 14.2184 5.03188 14.0419C4.8259 13.8655 4.58117 13.7401 4.31761 13.676C2.56161 13.25 2.56161 10.752 4.31761 10.326C4.58141 10.2621 4.82639 10.1368 5.03261 9.96027C5.23883 9.78378 5.40046 9.56109 5.50436 9.31032C5.60825 9.05956 5.65146 8.78781 5.63048 8.51719C5.6095 8.24657 5.52491 7.98473 5.38361 7.75298C4.44361 6.20998 6.20961 4.44298 7.75361 5.38298C8.75361 5.99098 10.0496 5.45298 10.3256 4.31798Z" stroke="black" stroke-width="2" stroke-linecap="round" stroke-linejoin="round"/>
<path d="M11.9997 15C13.6566 15 14.9997 13.6569 14.9997 12C14.9997 10.3431 13.6566 9 11.9997 9C10.3429 9 8.99972 10.3431 8.99972 12C8.99972 13.6569 10.3429 15 11.9997 15Z" stroke="black" stroke-width="2" stroke-linecap="round" stroke-linejoin="round"/>
</svg>
