<svg width="24" height="24" viewBox="0 0 24 24" fill="none" xmlns="http://www.w3.org/2000/svg">
<path d="M6.33027 8H17.6693C17.9576 7.99997 18.2426 8.06229 18.5046 8.1827C18.7667 8.30311 18.9995 8.47876 19.1873 8.6976C19.3751 8.91645 19.5133 9.17331 19.5926 9.45059C19.6718 9.72786 19.6901 10.019 19.6463 10.304L18.3913 18.456C18.2823 19.1644 17.9233 19.8105 17.3793 20.2771C16.8352 20.7438 16.142 21.0002 15.4253 21H8.57327C7.85667 21 7.16375 20.7434 6.6199 20.2768C6.07605 19.8102 5.71719 19.1643 5.60827 18.456L4.35327 10.304C4.30944 10.019 4.32776 9.72786 4.40698 9.45059C4.48619 9.17331 4.62443 8.91645 4.81222 8.6976C5 8.47876 5.23289 8.30311 5.49491 8.1827C5.75694 8.06229 6.0419 7.99997 6.33027 8Z" stroke="currentColor" stroke-width="1.5" stroke-linecap="round" stroke-linejoin="round"/>
<path d="M9.00022 11V6C9.00022 5.20435 9.31629 4.44129 9.8789 3.87868C10.4415 3.31607 11.2046 3 12.0002 3C12.7959 3 13.5589 3.31607 14.1215 3.87868C14.6842 4.44129 15.0002 5.20435 15.0002 6V11" stroke="currentColor" stroke-width="1.5" stroke-linecap="round" stroke-linejoin="round"/>
</svg>
