<svg viewBox="0 0 24 24" fill="none" xmlns="http://www.w3.org/2000/svg">
<path d="M8.1 7.33333H4.7C4.24913 7.33333 3.81673 7.50893 3.49792 7.82149C3.17911 8.13405 3 8.55797 3 9V17.3333C3 17.7754 3.17911 18.1993 3.49792 18.5118C3.81673 18.8244 4.24913 19 4.7 19H18.3C18.7509 19 19.1833 18.8244 19.5021 18.5118C19.8209 18.1993 20 17.7754 20 17.3333V9C20 8.55797 19.8209 8.13405 19.5021 7.82149C19.1833 7.50893 18.7509 7.33333 18.3 7.33333H14.9M8.1 7.33333V4.5C8.1 4.36739 8.15373 4.24021 8.24937 4.14645C8.34502 4.05268 8.47474 4 8.61 4H14.39C14.5253 4 14.655 4.05268 14.7506 4.14645C14.8463 4.24021 14.9 4.36739 14.9 4.5V7.33333M8.1 7.33333H14.9" stroke="currentColor" stroke-width="1.5"/>
</svg>
