<svg width="24" height="24" viewBox="0 0 24 24" fill="none" xmlns="http://www.w3.org/2000/svg">
<path d="M6.99989 11V19C6.99989 19.2652 6.89454 19.5196 6.707 19.7071C6.51946 19.8946 6.26511 20 5.99989 20H3.99989C3.73468 20 3.48032 19.8946 3.29279 19.7071C3.10525 19.5196 2.99989 19.2652 2.99989 19V12C2.99989 11.7348 3.10525 11.4804 3.29279 11.2929C3.48032 11.1054 3.73468 11 3.99989 11H6.99989ZM6.99989 11C8.06076 11 9.07818 10.5786 9.82832 9.82843C10.5785 9.07828 10.9999 8.06087 10.9999 7V6C10.9999 5.46957 11.2106 4.96086 11.5857 4.58579C11.9608 4.21071 12.4695 4 12.9999 4C13.5303 4 14.039 4.21071 14.4141 4.58579C14.7892 4.96086 14.9999 5.46957 14.9999 6V11H17.9999C18.5303 11 19.039 11.2107 19.4141 11.5858C19.7892 11.9609 19.9999 12.4696 19.9999 13L18.9999 18C18.8561 18.6135 18.5833 19.1402 18.2225 19.501C17.8618 19.8617 17.4327 20.0368 16.9999 20H9.99989C9.20424 20 8.44118 19.6839 7.87857 19.1213C7.31596 18.5587 6.99989 17.7956 6.99989 17" stroke="black" stroke-width="1.5" stroke-linecap="round" stroke-linejoin="round"/>
</svg>
