<svg viewBox="0 0 24 24" fill="none" xmlns="http://www.w3.org/2000/svg">
<path d="M9.99997 13C9.99997 13.5304 10.2107 14.0391 10.5858 14.4142C10.9608 14.7893 11.4695 15 12 15C12.5304 15 13.0391 14.7893 13.4142 14.4142C13.7893 14.0391 14 13.5304 14 13C14 12.4696 13.7893 11.9609 13.4142 11.5858C13.0391 11.2107 12.5304 11 12 11C11.4695 11 10.9608 11.2107 10.5858 11.5858C10.2107 11.9609 9.99997 12.4696 9.99997 13Z" stroke="currentColor" stroke-width="2" stroke-linecap="round" stroke-linejoin="round"/>
<path d="M8 21V20C8 19.4696 8.21071 18.9609 8.58579 18.5858C8.96086 18.2107 9.46957 18 10 18H14C14.5304 18 15.0391 18.2107 15.4142 18.5858C15.7893 18.9609 16 19.4696 16 20V21" stroke="currentColor" stroke-width="2" stroke-linecap="round" stroke-linejoin="round"/>
<path d="M15 5C15 5.53043 15.2107 6.03914 15.5858 6.41421C15.9609 6.78929 16.4696 7 17 7C17.5304 7 18.0391 6.78929 18.4142 6.41421C18.7893 6.03914 19 5.53043 19 5C19 4.46957 18.7893 3.96086 18.4142 3.58579C18.0391 3.21071 17.5304 3 17 3C16.4696 3 15.9609 3.21071 15.5858 3.58579C15.2107 3.96086 15 4.46957 15 5Z" stroke="currentColor" stroke-width="2" stroke-linecap="round" stroke-linejoin="round"/>
<path d="M17 10H19C19.5305 10 20.0392 10.2107 20.4142 10.5858C20.7893 10.9609 21 11.4696 21 12V13" stroke="currentColor" stroke-width="2" stroke-linecap="round" stroke-linejoin="round"/>
<path d="M5.00003 5C5.00003 5.53043 5.21074 6.03914 5.58582 6.41421C5.96089 6.78929 6.4696 7 7.00003 7C7.53046 7 8.03917 6.78929 8.41424 6.41421C8.78932 6.03914 9.00003 5.53043 9.00003 5C9.00003 4.46957 8.78932 3.96086 8.41424 3.58579C8.03917 3.21071 7.53046 3 7.00003 3C6.4696 3 5.96089 3.21071 5.58582 3.58579C5.21074 3.96086 5.00003 4.46957 5.00003 5Z" stroke="currentColor" stroke-width="2" stroke-linecap="round" stroke-linejoin="round"/>
<path d="M2.99998 13V12C2.99998 11.4696 3.2107 10.9609 3.58577 10.5858C3.96084 10.2107 4.46955 10 4.99998 10H6.99999" stroke="currentColor" stroke-width="2" stroke-linecap="round" stroke-linejoin="round"/>
</svg>
